<svg width="40" height="40" viewBox="0 0 40 40" fill="none" xmlns="http://www.w3.org/2000/svg">
<path d="M18.9395 36.9859C14.4425 37.662 10.8025 38 7.83808 38C5.8618 38 4.3191 37.2225 3.39146 35.6676C2.46382 34.1127 2 31.6789 2 28.3662V12.1408C2 8.59155 2.4739 6.02254 3.42171 4.4338C4.38968 2.81127 5.93239 2 8.04982 2H18.9395V9.09859H9.25979C8.04982 9.09859 7.44484 10.1127 7.44484 12.1408V28.3662C7.44484 29.1437 7.57592 29.769 7.83808 30.2423C8.12041 30.6817 8.47331 30.9014 8.8968 30.9014C9.32029 30.9014 9.78411 30.9014 10.2883 30.9014C10.7924 30.8676 11.3167 30.8338 11.8612 30.8C12.4057 30.7662 12.9502 30.7324 13.4947 30.6986C14.0593 30.6648 14.7752 30.5972 15.6424 30.4958C16.5297 30.3944 17.6287 30.2761 18.9395 30.1408V36.9859Z" fill="#343892"/>
<path d="M31.6477 38H26.2028V9.09859H19.8505V2H38V9.09859H31.6477V38Z" fill="#343892"/>
</svg>
